# xmcd CD database file
#
# Track frame offsets:
#	150
#	20100
#	46889
#	68822
#	100962
#	127714
#	132054
#	153881
#	168643
#	189908
#	200638
#	223300
#	250695
#
# Disc length: 3701 seconds
#
# Revision: 0
# Processed by: cddbd v1.5.1PL0 Copyright (c) Steve Scherf et al.
# Submitted via: CDex 1.51
#
DISCID=b30e730d
DTITLE=Dan Gottshall - Christmas Time is here!
DYEAR=2002
DGENRE=Jazz
TTITLE0=Winter Wonderland
TTITLE1=Santa Claus Is Hangin' Round
TTITLE2=I'll Be Home For Christmas
TTITLE3='Zat You Santa Claus?
TTITLE4=Santa Claus Is Comin' To Town
TTITLE5=O Tannenbaum
TTITLE6=Baby It's Cold Outside
TTITLE7=I Saw Mommy Kissing Santa Claus
TTITLE8=The Christmas Song
TTITLE9=Deck the Halls
TTITLE10=Christmas Time Is Here
TTITLE11=Have Yourself A Merry Little Christmas
TTITLE12=Rudolph the Red-Nosed Reindeer
EXTD=YEAR: 2002
EXTT0=
EXTT1=
EXTT2=
EXTT3=
EXTT4=
EXTT5=
EXTT6=
EXTT7=
EXTT8=
EXTT9=
EXTT10=
EXTT11=
EXTT12=
PLAYORDER=
